<svg width="219" height="57" viewBox="0 0 219 57" fill="none" xmlns="http://www.w3.org/2000/svg">
<g id="FRAME 2">
<path id="FRAME" fill-rule="evenodd" clip-rule="evenodd" d="M15.564 56V36.376H32.7733V56H48.2013V38.8656H53.7949L62.8805 56H70.1171L74.2942 45.3663L80.0997 56H86.6499L89.7515 46.9048H109.601L112.687 56H120.81L123.236 39.9596L129.675 56H136.444L140.753 23.7624L155.598 56.092H160.155L175.007 23.7496L179.378 56H191.493V32.9746L194.943 56H228.003V42.6184L206.853 42.6184V34.2352H225.246V21.5808H206.853V13.336H227.326V0H191.493V32.9746L186.553 0H171.147L157.874 30.472L144.686 0H129.28L123.236 39.9596L107.195 0H92.1147L74.2942 45.3663L68.9805 35.6336C74.5125 32.3216 77.8693 26.6904 77.8693 19.8184C77.8693 8.112 69.1181 0 57.0453 0H35.6392V13.9592H32.7733V0H0V56H15.564ZM32.7733 22.8728H15.564V13.9592H32.7733V22.8728ZM32.7733 22.8728V36.376H33.5592V22.8728H32.7733ZM48.2013 25.8696H55.2485C59.5613 25.8696 62.0437 23.2728 62.0437 19.772C62.0437 16.272 59.5613 13.7096 55.2485 13.7096H48.2013V25.8696ZM93.5091 34.832H105.836L99.6451 17.4792L93.5091 34.832Z" fill="white"/>
</g>
</svg>
